# xmcd
#
# Track frame offsets:
#	150
#	21528
#	35320
#	44800
#	59807
#	74309
#	96651
#	113633
#	130748
#	149940
#	173993
#
# Disc length: 2631 seconds
#
# Revision: 1
# Processed by: cddbd v1.4b42PL0 Copyright (c) Steve Scherf et al.
# Submitted via: audiograbber 1.80
#
DISCID=b50a450b
DTITLE=Tavinho Limma - Tavinho Limma
DYEAR=1900
DGENRE=
TTITLE0=Amarras
TTITLE1=O'xente My Friend
TTITLE2=Um Bom Lero
TTITLE3=Banho de Prata
TTITLE4=Náufragos
TTITLE5=O Canto dos Arrecifes
TTITLE6=Prenhez
TTITLE7=Michael Jackson Regai Por Nós
TTITLE8=Tempo do Amor
TTITLE9=Invento
TTITLE10=Prece
EXTD=
EXTT0=Dinho Guedes - Lyslas Ênio
EXTT1=Tavinho Limma
EXTT2=Tavinho Limma
EXTT3=Tavinho Limma
EXTT4=Tavinho Limma e Eliane Sultanum
EXTT5=Tavinho Limma
EXTT6=Tavinho Limma
EXTT7=Tavinho Limma
EXTT8=Tavinho Limma
EXTT9=Tavinho Limma
EXTT10=Tavinho Limma
PLAYORDER=
